<svg xmlns="http://www.w3.org/2000/svg" xmlns:xlink="http://www.w3.org/1999/xlink" width="500" zoomAndPan="magnify" viewBox="0 0 375 374.999991" height="500" preserveAspectRatio="xMidYMid meet" version="1.0"><defs><g/></defs><g fill="#011200" fill-opacity="1"><g transform="translate(7.090245, 209.624986)"><g><path d="M 5.078125 -69.78125 L 30.53125 -69.78125 C 37.632812 -69.78125 43.382812 -67.945312 47.78125 -64.28125 C 52.1875 -60.613281 54.390625 -55.285156 54.390625 -48.296875 C 54.390625 -41.304688 52.160156 -35.820312 47.703125 -31.84375 C 43.242188 -27.863281 37.519531 -25.875 30.53125 -25.875 L 20.96875 -25.875 L 20.96875 0 L 5.078125 0 Z M 20.96875 -38.5625 L 25.453125 -38.5625 C 29.003906 -38.5625 31.921875 -39.28125 34.203125 -40.71875 C 36.492188 -42.15625 37.640625 -44.507812 37.640625 -47.78125 C 37.640625 -51.113281 36.492188 -53.5 34.203125 -54.9375 C 31.921875 -56.375 29.003906 -57.09375 25.453125 -57.09375 L 20.96875 -57.09375 Z M 20.96875 -38.5625 "/></g></g></g><g fill="#011200" fill-opacity="1"><g transform="translate(60.879149, 209.624986)"><g><path d="M 58.703125 -69.78125 L 58.703125 -24.78125 C 58.703125 -16.207031 56.390625 -9.722656 51.765625 -5.328125 C 47.140625 -0.929688 40.367188 1.265625 31.453125 1.265625 C 22.546875 1.265625 15.78125 -0.929688 11.15625 -5.328125 C 6.539062 -9.722656 4.234375 -16.207031 4.234375 -24.78125 L 4.234375 -69.78125 L 20.125 -69.78125 L 20.125 -29.4375 C 20.125 -23.789062 21.007812 -19.867188 22.78125 -17.671875 C 24.5625 -15.472656 27.453125 -14.375 31.453125 -14.375 C 35.460938 -14.375 38.351562 -15.472656 40.125 -17.671875 C 41.90625 -19.867188 42.796875 -23.789062 42.796875 -29.4375 L 42.796875 -69.78125 Z M 58.703125 -69.78125 "/></g></g></g><g fill="#011200" fill-opacity="1"><g transform="translate(121.264839, 209.624986)"><g><path d="M 5.078125 -69.78125 L 30.03125 -69.78125 C 36.738281 -69.78125 42.207031 -67.988281 46.4375 -64.40625 C 50.664062 -60.820312 52.78125 -55.707031 52.78125 -49.0625 C 52.78125 -43.925781 51.492188 -39.625 48.921875 -36.15625 C 46.359375 -32.6875 42.878906 -30.25 38.484375 -28.84375 L 62.5 0 L 42.28125 0 L 20.96875 -27.578125 L 20.96875 0 L 5.078125 0 Z M 20.96875 -38.828125 L 22.84375 -38.828125 C 24.300781 -38.828125 25.535156 -38.851562 26.546875 -38.90625 C 27.566406 -38.957031 28.722656 -39.148438 30.015625 -39.484375 C 31.316406 -39.828125 32.363281 -40.304688 33.15625 -40.921875 C 33.945312 -41.546875 34.625 -42.453125 35.1875 -43.640625 C 35.75 -44.828125 36.03125 -46.265625 36.03125 -47.953125 C 36.03125 -49.648438 35.75 -51.085938 35.1875 -52.265625 C 34.625 -53.453125 33.945312 -54.351562 33.15625 -54.96875 C 32.363281 -55.59375 31.316406 -56.070312 30.015625 -56.40625 C 28.722656 -56.75 27.566406 -56.945312 26.546875 -57 C 25.535156 -57.0625 24.300781 -57.09375 22.84375 -57.09375 L 20.96875 -57.09375 Z M 20.96875 -38.828125 "/></g></g></g><g fill="#011200" fill-opacity="1"><g transform="translate(179.282456, 209.624986)"><g><path d="M 30.78125 -71.046875 C 34.5625 -71.046875 38.253906 -70.492188 41.859375 -69.390625 C 45.472656 -68.296875 48.15625 -67.210938 49.90625 -66.140625 L 52.4375 -64.453125 L 46.015625 -51.765625 C 45.503906 -52.097656 44.796875 -52.53125 43.890625 -53.0625 C 42.992188 -53.601562 41.300781 -54.320312 38.8125 -55.21875 C 36.332031 -56.125 34.023438 -56.578125 31.890625 -56.578125 C 29.234375 -56.578125 27.1875 -56.015625 25.75 -54.890625 C 24.3125 -53.765625 23.59375 -52.242188 23.59375 -50.328125 C 23.59375 -49.367188 23.929688 -48.476562 24.609375 -47.65625 C 25.285156 -46.84375 26.441406 -45.96875 28.078125 -45.03125 C 29.710938 -44.101562 31.148438 -43.359375 32.390625 -42.796875 C 33.628906 -42.234375 35.546875 -41.390625 38.140625 -40.265625 C 42.648438 -38.347656 46.5 -35.738281 49.6875 -32.4375 C 52.875 -29.132812 54.46875 -25.398438 54.46875 -21.234375 C 54.46875 -17.222656 53.75 -13.722656 52.3125 -10.734375 C 50.875 -7.753906 48.898438 -5.414062 46.390625 -3.71875 C 43.878906 -2.03125 41.101562 -0.78125 38.0625 0.03125 C 35.019531 0.851562 31.722656 1.265625 28.171875 1.265625 C 25.117188 1.265625 22.125 0.953125 19.1875 0.328125 C 16.257812 -0.285156 13.804688 -1.054688 11.828125 -1.984375 C 9.859375 -2.921875 8.082031 -3.835938 6.5 -4.734375 C 4.925781 -5.640625 3.773438 -6.398438 3.046875 -7.015625 L 1.9375 -7.953125 L 9.890625 -21.3125 C 10.566406 -20.75 11.5 -20.03125 12.6875 -19.15625 C 13.875 -18.28125 15.972656 -17.109375 18.984375 -15.640625 C 22.003906 -14.179688 24.671875 -13.453125 26.984375 -13.453125 C 33.691406 -13.453125 37.046875 -15.734375 37.046875 -20.296875 C 37.046875 -21.253906 36.804688 -22.140625 36.328125 -22.953125 C 35.847656 -23.773438 35 -24.59375 33.78125 -25.40625 C 32.570312 -26.226562 31.5 -26.878906 30.5625 -27.359375 C 29.632812 -27.835938 28.113281 -28.570312 26 -29.5625 C 23.894531 -30.550781 22.332031 -31.296875 21.3125 -31.796875 C 17.082031 -33.890625 13.8125 -36.5 11.5 -39.625 C 9.1875 -42.75 8.03125 -46.117188 8.03125 -49.734375 C 8.03125 -55.992188 10.34375 -61.109375 14.96875 -65.078125 C 19.59375 -69.054688 24.863281 -71.046875 30.78125 -71.046875 Z M 30.78125 -71.046875 "/></g></g></g><g fill="#011200" fill-opacity="1"><g transform="translate(233.578809, 209.624986)"><g><path d="M 58.703125 -69.78125 L 58.703125 -24.78125 C 58.703125 -16.207031 56.390625 -9.722656 51.765625 -5.328125 C 47.140625 -0.929688 40.367188 1.265625 31.453125 1.265625 C 22.546875 1.265625 15.78125 -0.929688 11.15625 -5.328125 C 6.539062 -9.722656 4.234375 -16.207031 4.234375 -24.78125 L 4.234375 -69.78125 L 20.125 -69.78125 L 20.125 -29.4375 C 20.125 -23.789062 21.007812 -19.867188 22.78125 -17.671875 C 24.5625 -15.472656 27.453125 -14.375 31.453125 -14.375 C 35.460938 -14.375 38.351562 -15.472656 40.125 -17.671875 C 41.90625 -19.867188 42.796875 -23.789062 42.796875 -29.4375 L 42.796875 -69.78125 Z M 58.703125 -69.78125 "/></g></g></g><g fill="#011200" fill-opacity="1"><g transform="translate(293.964494, 209.624986)"><g><path d="M 20.96875 -69.78125 L 20.96875 0 L 5.078125 0 L 5.078125 -69.78125 Z M 20.96875 -69.78125 "/></g></g></g><g fill="#011200" fill-opacity="1"><g transform="translate(317.475852, 209.624986)"><g><path d="M 0.671875 -55.828125 L 0.671875 -69.78125 L 49.734375 -69.78125 L 49.734375 -55.828125 L 33.15625 -55.828125 L 33.15625 0 L 17.25 0 L 17.25 -55.828125 Z M 0.671875 -55.828125 "/></g></g></g></svg>